<?xml version="1.0" encoding="UTF-8"?>
<svg xmlns="http://www.w3.org/2000/svg" viewBox="0 0 500 500">
  <defs>
    <style>
      .cls-1 {
        fill: #fff;
      }
    </style>
  </defs>
  <g id="_레이어_1" data-name="레이어 1">
    <g>
      <g>
        <path class="cls-1" d="M216.55,303.54v-13.97c0-7.41,3.17-13.49,9.52-18.26l31.27-23.81c5.4-4.13,8.1-9.42,8.1-15.87v-6.19c0-10.16-5.03-15.24-15.08-15.24h-11.43c-9.95,0-14.92,5.08-14.92,15.24v7.14c0,1.27-.58,1.91-1.75,1.91h-4.6c-1.17,0-1.75-.64-1.75-1.91v-7.3c0-6.88,2.01-12.28,6.03-16.19,4.02-3.91,9.47-5.87,16.35-5.87h12.86c6.88,0,12.3,1.93,16.27,5.79,3.97,3.86,5.95,9.29,5.95,16.27v6.67c0,8.25-3.33,14.92-10,20l-31.59,24.29c-4.45,3.39-6.67,7.57-6.67,12.54v9.21h46.99c1.16,0,1.75.58,1.75,1.75v3.81c0,1.17-.58,1.75-1.75,1.75h-53.65c-1.27,0-1.91-.58-1.91-1.75Z"/>
        <path class="cls-1" d="M272.11,306.44h-53.65c-1.91,0-3.06-1.08-3.06-2.9v-13.97c0-7.76,3.36-14.21,9.99-19.18l31.27-23.81c5.14-3.93,7.64-8.83,7.64-14.96v-6.19c0-9.48-4.56-14.09-13.93-14.09h-11.43c-9.27,0-13.77,4.61-13.77,14.09v7.14c0,1.91-1.08,3.06-2.9,3.06h-4.6c-1.81,0-2.9-1.14-2.9-3.06v-7.3c0-7.17,2.15-12.9,6.38-17.02,4.23-4.11,10-6.2,17.15-6.2h12.86c7.16,0,12.9,2.06,17.07,6.12,4.18,4.07,6.3,9.82,6.3,17.1v6.67c0,8.59-3.52,15.63-10.45,20.92l-31.59,24.28c-4.19,3.19-6.22,6.99-6.22,11.63v8.06h45.84c1.79,0,2.9,1.11,2.9,2.9v3.81c0,1.79-1.11,2.9-2.9,2.9ZM238.93,209.05h11.43c10.62,0,16.23,5.67,16.23,16.39v6.19c0,6.8-2.88,12.45-8.55,16.79l-31.27,23.81c-6.11,4.58-9.07,10.25-9.07,17.34v13.97c0,.41,0,.59.75.59h53.65c.53,0,.6-.07.6-.59v-3.81c0-.53-.07-.59-.6-.59h-48.14v-10.36c0-5.33,2.4-9.85,7.12-13.46l31.59-24.28c6.43-4.9,9.55-11.14,9.55-19.09v-6.67c0-6.63-1.89-11.82-5.61-15.45-3.73-3.63-8.93-5.47-15.47-5.47h-12.86c-6.53,0-11.76,1.87-15.55,5.55-3.77,3.67-5.68,8.84-5.68,15.37v7.3c0,.75.19.75.59.75h4.6c.41,0,.59,0,.59-.75v-7.14c0-10.72,5.56-16.39,16.07-16.39Z"/>
      </g>
      <path class="cls-1" d="M359.74,62.95c-2.72,0-4.92,2.2-4.92,4.92v238.53h9.84V67.87c0-2.72-2.2-4.92-4.92-4.92Z"/>
      <path class="cls-1" d="M139.44,306.39h-5.93c-1.36,0-2.05-.82-2.05-2.45v-138.93c0-1.64.68-2.45,2.05-2.45h5.93c1.5,0,2.25.82,2.25,2.45v47.67h.82c3.82-7.09,10.91-10.64,21.28-10.64h13.5c8.73,0,15.62,2.59,20.67,7.78,5.04,5.19,7.57,12.28,7.57,21.28v72.84c0,1.64-.68,2.45-2.05,2.45h-5.93c-1.5,0-2.25-.82-2.25-2.45v-72.43c0-6.41-1.64-11.39-4.91-14.94-3.27-3.55-8.05-5.32-14.32-5.32h-13.3c-6.55,0-11.7,1.74-15.45,5.22-3.75,3.48-5.63,8.42-5.63,14.83v72.64c0,1.64-.75,2.45-2.25,2.45Z"/>
      <path class="cls-1" d="M344.87,299.43v4.71c0,1.5-.75,2.25-2.25,2.25h-29.46c-8.87,0-15.86-2.59-20.97-7.78-5.12-5.18-7.67-12.28-7.67-21.28v-46.24c0-9,2.56-16.09,7.67-21.28,5.12-5.18,12.1-7.78,20.97-7.78h29.46c1.5,0,2.25.75,2.25,2.25v4.91c0,1.37-.75,2.05-2.25,2.05h-28.64c-6.28,0-11.05,1.77-14.32,5.32-3.27,3.55-4.91,8.53-4.91,14.94v45.42c0,6.41,1.64,11.39,4.91,14.94,3.27,3.55,8.05,5.32,14.32,5.32h28.64c1.5,0,2.25.75,2.25,2.25Z"/>
    </g>
    <path class="cls-1" d="M250,500C112.15,500,0,387.85,0,250S112.15,0,250,0c22.23,0,44.28,2.92,65.53,8.68,2.13.58,3.39,2.77,2.81,4.9s-2.77,3.38-4.9,2.81c-20.57-5.57-41.92-8.4-63.44-8.4C116.55,7.99,7.99,116.55,7.99,250s108.57,242.01,242.01,242.01,242.01-108.57,242.01-242.01c0-39.17-9.06-76.54-26.94-111.08-17.06-32.96-41.92-62.03-71.89-84.06-1.78-1.31-2.16-3.81-.85-5.58,1.3-1.78,3.8-2.16,5.58-.85,30.96,22.76,56.64,52.78,74.26,86.82,18.21,35.18,27.83,74.86,27.83,114.75,0,137.85-112.15,250-250,250ZM381.57,427.11c36.96-27.75,64.75-67.24,78.24-111.2.65-2.11-.54-4.34-2.65-4.99-2.1-.65-4.34.54-4.99,2.65-13,42.35-39.77,80.41-75.4,107.15-36.83,27.65-80.71,42.26-126.89,42.26s-89.82-14.53-126.58-42.03c-35.56-26.59-62.36-64.46-75.47-106.62-.66-2.11-2.89-3.28-5-2.63-2.11.66-3.28,2.89-2.63,5,13.61,43.76,41.43,83.06,78.32,110.65,38.16,28.54,83.58,43.62,131.37,43.62s93.47-15.17,131.69-43.86Z"/>
    <circle class="cls-1" cx="360.08" cy="23.34" r="22.8"/>
  </g>
</svg>